# 3ds Max Wavefront OBJ Exporter v0.97b - (c)2007 guruware
# 创建的文件:16.01.2017 15:03:23

mtllib LWJ.mtl

#
# object Box042
#

v  12844.0078 0.0000 55694.7734
v  12844.0078 0.0000 49512.7734
v  19266.0078 0.0000 49512.7734
v  19266.0078 0.0000 55694.7734
v  12844.0078 5.0000 55694.7734
v  19266.0078 5.0000 55694.7734
v  19266.0078 5.0000 49512.7734
v  12844.0078 5.0000 49512.7734
# 8 vertices

vn 0.0000 -1.0000 -0.0000
vn 0.0000 1.0000 -0.0000
vn 0.0000 0.0000 1.0000
vn 1.0000 0.0000 -0.0000
vn 0.0000 0.0000 -1.0000
vn -1.0000 0.0000 -0.0000
# 6 vertex normals

vt 1.0000 0.0000 0.0000
vt 1.0000 1.0000 0.0000
vt 0.0000 1.0000 0.0000
vt 0.0000 0.0000 0.0000
# 4 texture coords

g Box042
usemtl Material__193
s 2
f 1/1/1 2/2/1 3/3/1 4/4/1 
s 4
f 5/4/2 6/1/2 7/2/2 8/3/2 
s 8
f 1/4/3 4/1/3 6/2/3 5/3/3 
s 16
f 4/4/4 3/1/4 7/2/4 6/3/4 
s 32
f 3/4/5 2/1/5 8/2/5 7/3/5 
s 64
f 2/4/6 1/1/6 5/2/6 8/3/6 
# 6 polygons

#
# object Box048
#

v  25688.0059 0.0000 61876.7656
v  25688.0059 0.0000 55694.7656
v  32110.0098 0.0000 55694.7656
v  32110.0098 0.0000 61876.7656
v  25688.0059 5.0000 61876.7656
v  32110.0098 5.0000 61876.7656
v  32110.0098 5.0000 55694.7656
v  25688.0059 5.0000 55694.7656
# 8 vertices

vn 0.0000 -1.0000 -0.0000
vn 0.0000 1.0000 -0.0000
vn 0.0000 0.0000 1.0000
vn 1.0000 0.0000 -0.0000
vn 0.0000 0.0000 -1.0000
vn -1.0000 0.0000 -0.0000
# 6 vertex normals

vt 1.0000 0.0000 0.0000
vt 1.0000 1.0000 0.0000
vt 0.0000 1.0000 0.0000
vt 0.0000 0.0000 0.0000
# 4 texture coords

g Box048
usemtl Material__198
s 2
f 9/5/7 10/6/7 11/7/7 12/8/7 
s 4
f 13/8/8 14/5/8 15/6/8 16/7/8 
s 8
f 9/8/9 12/5/9 14/6/9 13/7/9 
s 16
f 12/8/10 11/5/10 15/6/10 14/7/10 
s 32
f 11/8/11 10/5/11 16/6/11 15/7/11 
s 64
f 10/8/12 9/5/12 13/6/12 16/7/12 
# 6 polygons

#
# object Box049
#

v  32110.0078 0.0000 61876.7656
v  32110.0078 0.0000 55694.7656
v  38532.0078 0.0000 55694.7656
v  38532.0078 0.0000 61876.7656
v  32110.0078 5.0000 61876.7656
v  38532.0078 5.0000 61876.7656
v  38532.0078 5.0000 55694.7656
v  32110.0078 5.0000 55694.7656
# 8 vertices

vn 0.0000 -1.0000 -0.0000
vn 0.0000 1.0000 -0.0000
vn 0.0000 0.0000 1.0000
vn 1.0000 0.0000 -0.0000
vn 0.0000 0.0000 -1.0000
vn -1.0000 0.0000 -0.0000
# 6 vertex normals

vt 1.0000 0.0000 0.0000
vt 1.0000 1.0000 0.0000
vt 0.0000 1.0000 0.0000
vt 0.0000 0.0000 0.0000
# 4 texture coords

g Box049
usemtl Material__197
s 2
f 17/9/13 18/10/13 19/11/13 20/12/13 
s 4
f 21/12/14 22/9/14 23/10/14 24/11/14 
s 8
f 17/12/15 20/9/15 22/10/15 21/11/15 
s 16
f 20/12/16 19/9/16 23/10/16 22/11/16 
s 32
f 19/12/17 18/9/17 24/10/17 23/11/17 
s 64
f 18/12/18 17/9/18 21/10/18 24/11/18 
# 6 polygons

#
# object Box029
#

v  12844.0078 0.0000 24784.7656
v  12844.0078 0.0000 18602.7578
v  19266.0078 0.0000 18602.7578
v  19266.0078 0.0000 24784.7656
v  12844.0078 5.0000 24784.7656
v  19266.0078 5.0000 24784.7656
v  19266.0078 5.0000 18602.7578
v  12844.0078 5.0000 18602.7578
# 8 vertices

vn 0.0000 -1.0000 -0.0000
vn 0.0000 1.0000 -0.0000
vn 0.0000 0.0000 1.0000
vn 1.0000 0.0000 -0.0000
vn 0.0000 0.0000 -1.0000
vn -1.0000 0.0000 -0.0000
# 6 vertex normals

vt 1.0000 0.0000 0.0000
vt 1.0000 1.0000 0.0000
vt 0.0000 1.0000 0.0000
vt 0.0000 0.0000 0.0000
# 4 texture coords

g Box029
usemtl Material__178
s 2
f 25/13/19 26/14/19 27/15/19 28/16/19 
s 4
f 29/16/20 30/13/20 31/14/20 32/15/20 
s 8
f 25/16/21 28/13/21 30/14/21 29/15/21 
s 16
f 28/16/22 27/13/22 31/14/22 30/15/22 
s 32
f 27/16/23 26/13/23 32/14/23 31/15/23 
s 64
f 26/16/24 25/13/24 29/14/24 32/15/24 
# 6 polygons

#
# object Box032
#

v  12844.0010 0.0000 30966.7695
v  12844.0010 0.0000 24784.7656
v  19266.0000 0.0000 24784.7656
v  19266.0000 0.0000 30966.7695
v  12844.0010 5.0000 30966.7695
v  19266.0000 5.0000 30966.7695
v  19266.0000 5.0000 24784.7656
v  12844.0010 5.0000 24784.7656
# 8 vertices

vn 0.0000 -1.0000 -0.0000
vn 0.0000 1.0000 -0.0000
vn 0.0000 0.0000 1.0000
vn 1.0000 0.0000 -0.0000
vn 0.0000 0.0000 -1.0000
vn -1.0000 0.0000 -0.0000
# 6 vertex normals

vt 1.0000 0.0000 0.0000
vt 1.0000 1.0000 0.0000
vt 0.0000 1.0000 0.0000
vt 0.0000 0.0000 0.0000
# 4 texture coords

g Box032
usemtl Material__181
s 2
f 33/17/25 34/18/25 35/19/25 36/20/25 
s 4
f 37/20/26 38/17/26 39/18/26 40/19/26 
s 8
f 33/20/27 36/17/27 38/18/27 37/19/27 
s 16
f 36/20/28 35/17/28 39/18/28 38/19/28 
s 32
f 35/20/29 34/17/29 40/18/29 39/19/29 
s 64
f 34/20/30 33/17/30 37/18/30 40/19/30 
# 6 polygons

#
# object Box034
#

v  12844.0010 0.0000 37148.7734
v  12844.0010 0.0000 30966.7734
v  19266.0000 0.0000 30966.7734
v  19266.0000 0.0000 37148.7734
v  12844.0010 5.0000 37148.7734
v  19266.0000 5.0000 37148.7734
v  19266.0000 5.0000 30966.7734
v  12844.0010 5.0000 30966.7734
# 8 vertices

vn 0.0000 -1.0000 -0.0000
vn 0.0000 1.0000 -0.0000
vn 0.0000 0.0000 1.0000
vn 1.0000 0.0000 -0.0000
vn 0.0000 0.0000 -1.0000
vn -1.0000 0.0000 -0.0000
# 6 vertex normals

vt 1.0000 0.0000 0.0000
vt 1.0000 1.0000 0.0000
vt 0.0000 1.0000 0.0000
vt 0.0000 0.0000 0.0000
# 4 texture coords

g Box034
usemtl Material__183
s 2
f 41/21/31 42/22/31 43/23/31 44/24/31 
s 4
f 45/24/32 46/21/32 47/22/32 48/23/32 
s 8
f 41/24/33 44/21/33 46/22/33 45/23/33 
s 16
f 44/24/34 43/21/34 47/22/34 46/23/34 
s 32
f 43/24/35 42/21/35 48/22/35 47/23/35 
s 64
f 42/24/36 41/21/36 45/22/36 48/23/36 
# 6 polygons

#
# object Box033
#

v  6422.0073 0.0000 37148.7734
v  6422.0073 0.0000 30966.7734
v  12844.0078 0.0000 30966.7734
v  12844.0078 0.0000 37148.7734
v  6422.0073 5.0000 37148.7734
v  12844.0078 5.0000 37148.7734
v  12844.0078 5.0000 30966.7734
v  6422.0073 5.0000 30966.7734
# 8 vertices

vn 0.0000 -1.0000 -0.0000
vn 0.0000 1.0000 -0.0000
vn 0.0000 0.0000 1.0000
vn 1.0000 0.0000 -0.0000
vn 0.0000 0.0000 -1.0000
vn -1.0000 0.0000 -0.0000
# 6 vertex normals

vt 1.0000 0.0000 0.0000
vt 1.0000 1.0000 0.0000
vt 0.0000 1.0000 0.0000
vt 0.0000 0.0000 0.0000
# 4 texture coords

g Box033
usemtl Material__182
s 2
f 49/25/37 50/26/37 51/27/37 52/28/37 
s 4
f 53/28/38 54/25/38 55/26/38 56/27/38 
s 8
f 49/28/39 52/25/39 54/26/39 53/27/39 
s 16
f 52/28/40 51/25/40 55/26/40 54/27/40 
s 32
f 51/28/41 50/25/41 56/26/41 55/27/41 
s 64
f 50/28/42 49/25/42 53/26/42 56/27/42 
# 6 polygons

#
# object Box031
#

v  6422.0000 0.0000 30966.7695
v  6422.0000 0.0000 24784.7617
v  12844.0000 0.0000 24784.7617
v  12844.0000 0.0000 30966.7695
v  6422.0000 5.0000 30966.7695
v  12844.0000 5.0000 30966.7695
v  12844.0000 5.0000 24784.7617
v  6422.0000 5.0000 24784.7617
# 8 vertices

vn 0.0000 -1.0000 -0.0000
vn 0.0000 1.0000 -0.0000
vn 0.0000 0.0000 1.0000
vn 1.0000 0.0000 -0.0000
vn 0.0000 0.0000 -1.0000
vn -1.0000 0.0000 -0.0000
# 6 vertex normals

vt 1.0000 0.0000 0.0000
vt 1.0000 1.0000 0.0000
vt 0.0000 1.0000 0.0000
vt 0.0000 0.0000 0.0000
# 4 texture coords

g Box031
usemtl Material__180
s 2
f 57/29/43 58/30/43 59/31/43 60/32/43 
s 4
f 61/32/44 62/29/44 63/30/44 64/31/44 
s 8
f 57/32/45 60/29/45 62/30/45 61/31/45 
s 16
f 60/32/46 59/29/46 63/30/46 62/31/46 
s 32
f 59/32/47 58/29/47 64/30/47 63/31/47 
s 64
f 58/32/48 57/29/48 61/30/48 64/31/48 
# 6 polygons

#
# object Box028
#

v  6422.0083 0.0000 24784.7598
v  6422.0083 0.0000 18602.7598
v  12844.0078 0.0000 18602.7598
v  12844.0078 0.0000 24784.7598
v  6422.0083 5.0000 24784.7598
v  12844.0078 5.0000 24784.7598
v  12844.0078 5.0000 18602.7598
v  6422.0083 5.0000 18602.7598
# 8 vertices

vn 0.0000 -1.0000 -0.0000
vn 0.0000 1.0000 -0.0000
vn 0.0000 0.0000 1.0000
vn 1.0000 0.0000 -0.0000
vn 0.0000 0.0000 -1.0000
vn -1.0000 0.0000 -0.0000
# 6 vertex normals

vt 1.0000 0.0000 0.0000
vt 1.0000 1.0000 0.0000
vt 0.0000 1.0000 0.0000
vt 0.0000 0.0000 0.0000
# 4 texture coords

g Box028
usemtl Material__177
s 2
f 65/33/49 66/34/49 67/35/49 68/36/49 
s 4
f 69/36/50 70/33/50 71/34/50 72/35/50 
s 8
f 65/36/51 68/33/51 70/34/51 69/35/51 
s 16
f 68/36/52 67/33/52 71/34/52 70/35/52 
s 32
f 67/36/53 66/33/53 72/34/53 71/35/53 
s 64
f 66/36/54 65/33/54 69/34/54 72/35/54 
# 6 polygons

#
# object Box035
#

v  19266.0078 0.0000 37148.7734
v  19266.0078 0.0000 30966.7734
v  25688.0078 0.0000 30966.7734
v  25688.0078 0.0000 37148.7734
v  19266.0078 5.0000 37148.7734
v  25688.0078 5.0000 37148.7734
v  25688.0078 5.0000 30966.7734
v  19266.0078 5.0000 30966.7734
# 8 vertices

vn 0.0000 -1.0000 -0.0000
vn 0.0000 1.0000 -0.0000
vn 0.0000 0.0000 1.0000
vn 1.0000 0.0000 -0.0000
vn 0.0000 0.0000 -1.0000
vn -1.0000 0.0000 -0.0000
# 6 vertex normals

vt 1.0000 0.0000 0.0000
vt 1.0000 1.0000 0.0000
vt 0.0000 1.0000 0.0000
vt 0.0000 0.0000 0.0000
# 4 texture coords

g Box035
usemtl Material__184
s 2
f 73/37/55 74/38/55 75/39/55 76/40/55 
s 4
f 77/40/56 78/37/56 79/38/56 80/39/56 
s 8
f 73/40/57 76/37/57 78/38/57 77/39/57 
s 16
f 76/40/58 75/37/58 79/38/58 78/39/58 
s 32
f 75/40/59 74/37/59 80/38/59 79/39/59 
s 64
f 74/40/60 73/37/60 77/38/60 80/39/60 
# 6 polygons

#
# object Box026
#

v  6422.0078 0.0000 18602.7617
v  6422.0078 0.0000 12420.7617
v  12844.0078 0.0000 12420.7617
v  12844.0078 0.0000 18602.7617
v  6422.0078 5.0000 18602.7617
v  12844.0078 5.0000 18602.7617
v  12844.0078 5.0000 12420.7617
v  6422.0078 5.0000 12420.7617
# 8 vertices

vn 0.0000 -1.0000 -0.0000
vn 0.0000 1.0000 -0.0000
vn 0.0000 0.0000 1.0000
vn 1.0000 0.0000 -0.0000
vn 0.0000 0.0000 -1.0000
vn -1.0000 0.0000 -0.0000
# 6 vertex normals

vt 1.0000 0.0000 0.0000
vt 1.0000 1.0000 0.0000
vt 0.0000 1.0000 0.0000
vt 0.0000 0.0000 0.0000
# 4 texture coords

g Box026
usemtl Material__175
s 2
f 81/41/61 82/42/61 83/43/61 84/44/61 
s 4
f 85/44/62 86/41/62 87/42/62 88/43/62 
s 8
f 81/44/63 84/41/63 86/42/63 85/43/63 
s 16
f 84/44/64 83/41/64 87/42/64 86/43/64 
s 32
f 83/44/65 82/41/65 88/42/65 87/43/65 
s 64
f 82/44/66 81/41/66 85/42/66 88/43/66 
# 6 polygons

#
# object Box037
#

v  12844.0078 0.0000 43330.7734
v  12844.0078 0.0000 37148.7734
v  19266.0078 0.0000 37148.7734
v  19266.0078 0.0000 43330.7734
v  12844.0078 5.0000 43330.7734
v  19266.0078 5.0000 43330.7734
v  19266.0078 5.0000 37148.7734
v  12844.0078 5.0000 37148.7734
# 8 vertices

vn 0.0000 -1.0000 -0.0000
vn 0.0000 1.0000 -0.0000
vn 0.0000 0.0000 1.0000
vn 1.0000 0.0000 -0.0000
vn 0.0000 0.0000 -1.0000
vn -1.0000 0.0000 -0.0000
# 6 vertex normals

vt 1.0000 0.0000 0.0000
vt 1.0000 1.0000 0.0000
vt 0.0000 1.0000 0.0000
vt 0.0000 0.0000 0.0000
# 4 texture coords

g Box037
usemtl Material__186
s 2
f 89/45/67 90/46/67 91/47/67 92/48/67 
s 4
f 93/48/68 94/45/68 95/46/68 96/47/68 
s 8
f 89/48/69 92/45/69 94/46/69 93/47/69 
s 16
f 92/48/70 91/45/70 95/46/70 94/47/70 
s 32
f 91/48/71 90/45/71 96/46/71 95/47/71 
s 64
f 90/48/72 89/45/72 93/46/72 96/47/72 
# 6 polygons

#
# object Box038
#

v  19266.0078 0.0000 43330.7734
v  19266.0078 0.0000 37148.7734
v  25688.0078 0.0000 37148.7734
v  25688.0078 0.0000 43330.7734
v  19266.0078 5.0000 43330.7734
v  25688.0078 5.0000 43330.7734
v  25688.0078 5.0000 37148.7734
v  19266.0078 5.0000 37148.7734
# 8 vertices

vn 0.0000 -1.0000 -0.0000
vn 0.0000 1.0000 -0.0000
vn 0.0000 0.0000 1.0000
vn 1.0000 0.0000 -0.0000
vn 0.0000 0.0000 -1.0000
vn -1.0000 0.0000 -0.0000
# 6 vertex normals

vt 1.0000 0.0000 0.0000
vt 1.0000 1.0000 0.0000
vt 0.0000 1.0000 0.0000
vt 0.0000 0.0000 0.0000
# 4 texture coords

g Box038
usemtl Material__187
s 2
f 97/49/73 98/50/73 99/51/73 100/52/73 
s 4
f 101/52/74 102/49/74 103/50/74 104/51/74 
s 8
f 97/52/75 100/49/75 102/50/75 101/51/75 
s 16
f 100/52/76 99/49/76 103/50/76 102/51/76 
s 32
f 99/52/77 98/49/77 104/50/77 103/51/77 
s 64
f 98/52/78 97/49/78 101/50/78 104/51/78 
# 6 polygons

#
# object Box040
#

v  12844.0078 0.0000 49512.7656
v  12844.0078 0.0000 43330.7656
v  19266.0078 0.0000 43330.7656
v  19266.0078 0.0000 49512.7656
v  12844.0078 5.0000 49512.7656
v  19266.0078 5.0000 49512.7656
v  19266.0078 5.0000 43330.7656
v  12844.0078 5.0000 43330.7656
# 8 vertices

vn 0.0000 -1.0000 -0.0000
vn 0.0000 1.0000 -0.0000
vn 0.0000 0.0000 1.0000
vn 1.0000 0.0000 -0.0000
vn 0.0000 0.0000 -1.0000
vn -1.0000 0.0000 -0.0000
# 6 vertex normals

vt 1.0000 0.0000 0.0000
vt 1.0000 1.0000 0.0000
vt 0.0000 1.0000 0.0000
vt 0.0000 0.0000 0.0000
# 4 texture coords

g Box040
usemtl Material__189
s 2
f 105/53/79 106/54/79 107/55/79 108/56/79 
s 4
f 109/56/80 110/53/80 111/54/80 112/55/80 
s 8
f 105/56/81 108/53/81 110/54/81 109/55/81 
s 16
f 108/56/82 107/53/82 111/54/82 110/55/82 
s 32
f 107/56/83 106/53/83 112/54/83 111/55/83 
s 64
f 106/56/84 105/53/84 109/54/84 112/55/84 
# 6 polygons

#
# object Box047
#

v  19266.0078 0.0000 49512.7734
v  19266.0078 0.0000 43330.7734
v  25688.0078 0.0000 43330.7734
v  25688.0078 0.0000 49512.7734
v  19266.0078 5.0000 49512.7734
v  25688.0078 5.0000 49512.7734
v  25688.0078 5.0000 43330.7734
v  19266.0078 5.0000 43330.7734
# 8 vertices

vn 0.0000 -1.0000 -0.0000
vn 0.0000 1.0000 -0.0000
vn 0.0000 0.0000 1.0000
vn 1.0000 0.0000 -0.0000
vn 0.0000 0.0000 -1.0000
vn -1.0000 0.0000 -0.0000
# 6 vertex normals

vt 1.0000 0.0000 0.0000
vt 1.0000 1.0000 0.0000
vt 0.0000 1.0000 0.0000
vt 0.0000 0.0000 0.0000
# 4 texture coords

g Box047
usemtl Material__190
s 2
f 113/57/85 114/58/85 115/59/85 116/60/85 
s 4
f 117/60/86 118/57/86 119/58/86 120/59/86 
s 8
f 113/60/87 116/57/87 118/58/87 117/59/87 
s 16
f 116/60/88 115/57/88 119/58/88 118/59/88 
s 32
f 115/60/89 114/57/89 120/58/89 119/59/89 
s 64
f 114/60/90 113/57/90 117/58/90 120/59/90 
# 6 polygons

#
# object Box041
#

v  25688.0059 0.0000 49512.7734
v  25688.0059 0.0000 43330.7734
v  32110.0098 0.0000 43330.7734
v  32110.0098 0.0000 49512.7734
v  25688.0059 5.0000 49512.7734
v  32110.0098 5.0000 49512.7734
v  32110.0098 5.0000 43330.7734
v  25688.0059 5.0000 43330.7734
# 8 vertices

vn 0.0000 -1.0000 -0.0000
vn 0.0000 1.0000 -0.0000
vn 0.0000 0.0000 1.0000
vn 1.0000 0.0000 -0.0000
vn 0.0000 0.0000 -1.0000
vn -1.0000 0.0000 -0.0000
# 6 vertex normals

vt 1.0000 0.0000 0.0000
vt 1.0000 1.0000 0.0000
vt 0.0000 1.0000 0.0000
vt 0.0000 0.0000 0.0000
# 4 texture coords

g Box041
usemtl Material__191
s 2
f 121/61/91 122/62/91 123/63/91 124/64/91 
s 4
f 125/64/92 126/61/92 127/62/92 128/63/92 
s 8
f 121/64/93 124/61/93 126/62/93 125/63/93 
s 16
f 124/64/94 123/61/94 127/62/94 126/63/94 
s 32
f 123/64/95 122/61/95 128/62/95 127/63/95 
s 64
f 122/64/96 121/61/96 125/62/96 128/63/96 
# 6 polygons

#
# object Box046
#

v  32110.0078 0.0000 55694.7656
v  32110.0078 0.0000 49512.7656
v  38532.0078 0.0000 49512.7656
v  38532.0078 0.0000 55694.7656
v  32110.0078 5.0000 55694.7656
v  38532.0078 5.0000 55694.7656
v  38532.0078 5.0000 49512.7656
v  32110.0078 5.0000 49512.7656
# 8 vertices

vn 0.0000 -1.0000 -0.0000
vn 0.0000 1.0000 -0.0000
vn 0.0000 0.0000 1.0000
vn 1.0000 0.0000 -0.0000
vn 0.0000 0.0000 -1.0000
vn -1.0000 0.0000 -0.0000
# 6 vertex normals

vt 1.0000 0.0000 0.0000
vt 1.0000 1.0000 0.0000
vt 0.0000 1.0000 0.0000
vt 0.0000 0.0000 0.0000
# 4 texture coords

g Box046
usemtl Material__196
s 2
f 129/65/97 130/66/97 131/67/97 132/68/97 
s 4
f 133/68/98 134/65/98 135/66/98 136/67/98 
s 8
f 129/68/99 132/65/99 134/66/99 133/67/99 
s 16
f 132/68/100 131/65/100 135/66/100 134/67/100 
s 32
f 131/68/101 130/65/101 136/66/101 135/67/101 
s 64
f 130/68/102 129/65/102 133/66/102 136/67/102 
# 6 polygons

#
# object Box045
#

v  32110.0098 0.0000 49512.7734
v  32110.0098 0.0000 43330.7734
v  38532.0078 0.0000 43330.7734
v  38532.0078 0.0000 49512.7734
v  32110.0098 5.0000 49512.7734
v  38532.0078 5.0000 49512.7734
v  38532.0078 5.0000 43330.7734
v  32110.0098 5.0000 43330.7734
# 8 vertices

vn 0.0000 -1.0000 -0.0000
vn 0.0000 1.0000 -0.0000
vn 0.0000 0.0000 1.0000
vn 1.0000 0.0000 -0.0000
vn 0.0000 0.0000 -1.0000
vn -1.0000 0.0000 -0.0000
# 6 vertex normals

vt 1.0000 0.0000 0.0000
vt 1.0000 1.0000 0.0000
vt 0.0000 1.0000 0.0000
vt 0.0000 0.0000 0.0000
# 4 texture coords

g Box045
usemtl Material__192
s 2
f 137/69/103 138/70/103 139/71/103 140/72/103 
s 4
f 141/72/104 142/69/104 143/70/104 144/71/104 
s 8
f 137/72/105 140/69/105 142/70/105 141/71/105 
s 16
f 140/72/106 139/69/106 143/70/106 142/71/106 
s 32
f 139/72/107 138/69/107 144/70/107 143/71/107 
s 64
f 138/72/108 137/69/108 141/70/108 144/71/108 
# 6 polygons

#
# object Box044
#

v  25688.0059 0.0000 55694.7734
v  25688.0059 0.0000 49512.7734
v  32110.0098 0.0000 49512.7734
v  32110.0098 0.0000 55694.7734
v  25688.0059 5.0000 55694.7734
v  32110.0098 5.0000 55694.7734
v  32110.0098 5.0000 49512.7734
v  25688.0059 5.0000 49512.7734
# 8 vertices

vn 0.0000 -1.0000 -0.0000
vn 0.0000 1.0000 -0.0000
vn 0.0000 0.0000 1.0000
vn 1.0000 0.0000 -0.0000
vn 0.0000 0.0000 -1.0000
vn -1.0000 0.0000 -0.0000
# 6 vertex normals

vt 1.0000 0.0000 0.0000
vt 1.0000 1.0000 0.0000
vt 0.0000 1.0000 0.0000
vt 0.0000 0.0000 0.0000
# 4 texture coords

g Box044
usemtl Material__195
s 2
f 145/73/109 146/74/109 147/75/109 148/76/109 
s 4
f 149/76/110 150/73/110 151/74/110 152/75/110 
s 8
f 145/76/111 148/73/111 150/74/111 149/75/111 
s 16
f 148/76/112 147/73/112 151/74/112 150/75/112 
s 32
f 147/76/113 146/73/113 152/74/113 151/75/113 
s 64
f 146/76/114 145/73/114 149/74/114 152/75/114 
# 6 polygons

#
# object Box043
#

v  19266.0078 0.0000 55694.7656
v  19266.0078 0.0000 49512.7656
v  25688.0078 0.0000 49512.7656
v  25688.0078 0.0000 55694.7656
v  19266.0078 5.0000 55694.7656
v  25688.0078 5.0000 55694.7656
v  25688.0078 5.0000 49512.7656
v  19266.0078 5.0000 49512.7656
# 8 vertices

vn 0.0000 -1.0000 -0.0000
vn 0.0000 1.0000 -0.0000
vn 0.0000 0.0000 1.0000
vn 1.0000 0.0000 -0.0000
vn 0.0000 0.0000 -1.0000
vn -1.0000 0.0000 -0.0000
# 6 vertex normals

vt 1.0000 0.0000 0.0000
vt 1.0000 1.0000 0.0000
vt 0.0000 1.0000 0.0000
vt 0.0000 0.0000 0.0000
# 4 texture coords

g Box043
usemtl Material__194
s 2
f 153/77/115 154/78/115 155/79/115 156/80/115 
s 4
f 157/80/116 158/77/116 159/78/116 160/79/116 
s 8
f 153/80/117 156/77/117 158/78/117 157/79/117 
s 16
f 156/80/118 155/77/118 159/78/118 158/79/118 
s 32
f 155/80/119 154/77/119 160/78/119 159/79/119 
s 64
f 154/80/120 153/77/120 157/78/120 160/79/120 
# 6 polygons

#
# object Box039
#

v  25688.0078 0.0000 43330.7734
v  25688.0078 0.0000 37148.7734
v  32110.0078 0.0000 37148.7734
v  32110.0078 0.0000 43330.7734
v  25688.0078 5.0000 43330.7734
v  32110.0078 5.0000 43330.7734
v  32110.0078 5.0000 37148.7734
v  25688.0078 5.0000 37148.7734
# 8 vertices

vn 0.0000 -1.0000 -0.0000
vn 0.0000 1.0000 -0.0000
vn 0.0000 0.0000 1.0000
vn 1.0000 0.0000 -0.0000
vn 0.0000 0.0000 -1.0000
vn -1.0000 0.0000 -0.0000
# 6 vertex normals

vt 1.0000 0.0000 0.0000
vt 1.0000 1.0000 0.0000
vt 0.0000 1.0000 0.0000
vt 0.0000 0.0000 0.0000
# 4 texture coords

g Box039
usemtl Material__188
s 2
f 161/81/121 162/82/121 163/83/121 164/84/121 
s 4
f 165/84/122 166/81/122 167/82/122 168/83/122 
s 8
f 161/84/123 164/81/123 166/82/123 165/83/123 
s 16
f 164/84/124 163/81/124 167/82/124 166/83/124 
s 32
f 163/84/125 162/81/125 168/82/125 167/83/125 
s 64
f 162/84/126 161/81/126 165/82/126 168/83/126 
# 6 polygons

#
# object Box036
#

v  6422.0078 0.0000 43330.7734
v  6422.0078 0.0000 37148.7734
v  12844.0078 0.0000 37148.7734
v  12844.0078 0.0000 43330.7734
# 4 vertices

vn 0.0000 -1.0000 -0.0000
vn 0.0000 1.0000 -0.0000
vn 1.0000 0.0000 -0.0000
# 3 vertex normals

vt 1.0000 0.0000 0.0000
vt 1.0000 1.0000 0.0000
vt 0.0000 1.0000 0.0000
vt 0.0000 0.0000 0.0000
# 4 texture coords

g Box036
usemtl Material__185
s 2
f 169/85/127 170/86/127 171/87/127 172/88/127 
s 4
f 169/88/128 172/85/128 171/86/128 170/87/128 
s 8
f 169/88/129 172/88/129 172/88/129 169/88/129 
s 16
f 172/88/129 171/85/129 171/85/129 172/88/129 
s 32
f 171/85/129 170/85/129 170/85/129 171/85/129 
s 64
f 170/85/129 169/88/129 169/88/129 170/85/129 
# 6 polygons

#
# object Box030
#

v  -0.0005 0.0000 30966.7734
v  -0.0005 0.0000 24784.7656
v  6422.0005 0.0000 24784.7656
v  6422.0005 0.0000 30966.7734
v  -0.0005 5.0000 30966.7734
v  6422.0005 5.0000 30966.7734
v  6422.0005 5.0000 24784.7656
v  -0.0005 5.0000 24784.7656
# 8 vertices

vn 0.0000 -1.0000 -0.0000
vn 0.0000 1.0000 -0.0000
vn 0.0000 0.0000 1.0000
vn 1.0000 0.0000 -0.0000
vn 0.0000 0.0000 -1.0000
vn -1.0000 0.0000 -0.0000
# 6 vertex normals

vt 1.0000 0.0000 0.0000
vt 1.0000 1.0000 0.0000
vt 0.0000 1.0000 0.0000
vt 0.0000 0.0000 0.0000
# 4 texture coords

g Box030
usemtl Material__179
s 2
f 173/89/130 174/90/130 175/91/130 176/92/130 
s 4
f 177/92/131 178/89/131 179/90/131 180/91/131 
s 8
f 173/92/132 176/89/132 178/90/132 177/91/132 
s 16
f 176/92/133 175/89/133 179/90/133 178/91/133 
s 32
f 175/92/134 174/89/134 180/90/134 179/91/134 
s 64
f 174/92/135 173/89/135 177/90/135 180/91/135 
# 6 polygons

#
# object Box027
#

v  0.0000 0.0000 24784.7656
v  0.0000 0.0000 18602.7578
v  6422.0000 0.0000 18602.7578
v  6422.0000 0.0000 24784.7656
v  0.0000 5.0000 24784.7656
v  6422.0000 5.0000 24784.7656
v  6422.0000 5.0000 18602.7578
v  0.0000 5.0000 18602.7578
# 8 vertices

vn 0.0000 -1.0000 -0.0000
vn 0.0000 1.0000 -0.0000
vn 0.0000 0.0000 1.0000
vn 1.0000 0.0000 -0.0000
vn 0.0000 0.0000 -1.0000
vn -1.0000 0.0000 -0.0000
# 6 vertex normals

vt 1.0000 0.0000 0.0000
vt 1.0000 1.0000 0.0000
vt 0.0000 1.0000 0.0000
vt 0.0000 0.0000 0.0000
# 4 texture coords

g Box027
usemtl Material__176
s 2
f 181/93/136 182/94/136 183/95/136 184/96/136 
s 4
f 185/96/137 186/93/137 187/94/137 188/95/137 
s 8
f 181/96/138 184/93/138 186/94/138 185/95/138 
s 16
f 184/96/139 183/93/139 187/94/139 186/95/139 
s 32
f 183/96/140 182/93/140 188/94/140 187/95/140 
s 64
f 182/96/141 181/93/141 185/94/141 188/95/141 
# 6 polygons

#
# object Box025
#

v  0.0000 0.0000 18602.7598
v  0.0000 0.0000 12420.7637
v  6422.0000 0.0000 12420.7637
v  6422.0000 0.0000 18602.7598
v  0.0000 5.0000 18602.7598
v  6422.0000 5.0000 18602.7598
v  6422.0000 5.0000 12420.7637
v  0.0000 5.0000 12420.7637
# 8 vertices

vn 0.0000 -1.0000 -0.0000
vn 0.0000 1.0000 -0.0000
vn 0.0000 0.0000 1.0000
vn 1.0000 0.0000 -0.0000
vn 0.0000 0.0000 -1.0000
vn -1.0000 0.0000 -0.0000
# 6 vertex normals

vt 1.0000 0.0000 0.0000
vt 1.0000 1.0000 0.0000
vt 0.0000 1.0000 0.0000
vt 0.0000 0.0000 0.0000
# 4 texture coords

g Box025
usemtl Material__174
s 2
f 189/97/142 190/98/142 191/99/142 192/100/142 
s 4
f 193/100/143 194/97/143 195/98/143 196/99/143 
s 8
f 189/100/144 192/97/144 194/98/144 193/99/144 
s 16
f 192/100/145 191/97/145 195/98/145 194/99/145 
s 32
f 191/100/146 190/97/146 196/98/146 195/99/146 
s 64
f 190/100/147 189/97/147 193/98/147 196/99/147 
# 6 polygons

